<?xml version="1.0" encoding="UTF-8" standalone="no"?>
<!-- Created with Inkscape (http://www.inkscape.org/) -->

<svg
   xmlns:dc="http://purl.org/dc/elements/1.1/"
   xmlns:cc="http://creativecommons.org/ns#"
   xmlns:rdf="http://www.w3.org/1999/02/22-rdf-syntax-ns#"
   xmlns:svg="http://www.w3.org/2000/svg"
   xmlns="http://www.w3.org/2000/svg"
   xmlns:sodipodi="http://sodipodi.sourceforge.net/DTD/sodipodi-0.dtd"
   xmlns:inkscape="http://www.inkscape.org/namespaces/inkscape"
   width="210mm"
   height="297mm"
   viewBox="0 0 210 297"
   version="1.1"
   id="svg8"
   inkscape:version="0.92.4 (unknown)"
   sodipodi:docname="icon.svg">
  <defs
     id="defs2" />
  <sodipodi:namedview
     id="base"
     pagecolor="#ffffff"
     bordercolor="#666666"
     borderopacity="1.0"
     inkscape:pageopacity="0.0"
     inkscape:pageshadow="2"
     inkscape:zoom="1.979899"
     inkscape:cx="11.038559"
     inkscape:cy="513.23334"
     inkscape:document-units="mm"
     inkscape:current-layer="layer1"
     showgrid="false"
     inkscape:snap-bbox="false"
     inkscape:bbox-paths="true"
     showguides="true"
     inkscape:guide-bbox="true"
     inkscape:window-width="1366"
     inkscape:window-height="714"
     inkscape:window-x="0"
     inkscape:window-y="25"
     inkscape:window-maximized="1">
    <sodipodi:guide
       position="-28.631697,124.44866"
       orientation="1,0"
       id="guide2762"
       inkscape:locked="false" />
    <sodipodi:guide
       position="-41.10491,130.3073"
       orientation="0,1"
       id="guide2764"
       inkscape:locked="false" />
  </sodipodi:namedview>
  <metadata
     id="metadata5">
    <rdf:RDF>
      <cc:Work
         rdf:about="">
        <dc:format>image/svg+xml</dc:format>
        <dc:type
           rdf:resource="http://purl.org/dc/dcmitype/StillImage" />
        <dc:title></dc:title>
      </cc:Work>
    </rdf:RDF>
  </metadata>
  <g
     inkscape:label="Layer 1"
     inkscape:groupmode="layer"
     id="layer1">
    <path
       style="fill:#0fa098;fill-opacity:1;stroke:none;stroke-width:0.97500002;stroke-miterlimit:4;stroke-dasharray:none;stroke-dashoffset:0;stroke-opacity:1"
       d="m 1.5119006,186.42306 c -4.211005,-1.14106 -7.592736,-4.47191 -8.643359,-8.51329 -0.480159,-1.84701 -0.312967,-4.94842 0.361676,-6.70908 1.331389,-3.4746 4.280282,-6.16601 7.90679,-7.21639 1.822024,-0.52774 4.731999,-0.59607 6.483815,-0.15227 6.7218734,1.70293 10.6787714,8.63303 8.5024224,14.89112 -1.225858,3.52496 -3.711147,6.01125 -7.3557014,7.35867 -2.068472,0.76474 -5.156768,0.90998 -7.255643,0.34124 z"
       id="path23"
       inkscape:connector-curvature="0" />
    <path
       style="fill:#0fa098;stroke:none;stroke-width:0.26458332px;stroke-linecap:butt;stroke-linejoin:miter;stroke-opacity:1;fill-opacity:1"
       d="m -3.8754081,182.87591 c -3.0351247,-0.0403 -2.3523596,2.10648 -2.5390605,3.74177 -1.5103322,-0.58826 -2.7351164,-1.58444 -3.0067823,-3.94222 3.2856148,0.90289 3.4727207,0.11734 4.2763125,-1.20271 z"
       id="path830"
       inkscape:connector-curvature="0"
       sodipodi:nodetypes="ccccc" />
    <path
       style="fill:#036460;stroke:none;stroke-width:0.09109817px;stroke-linecap:butt;stroke-linejoin:miter;stroke-opacity:1;fill-opacity:1"
       d="m -8.8012022,183.44205 c 0.025498,0.82231 1.54609,2.3953 1.8690884,2.13508 -0.3203236,-1.76653 -1.2230233,-2.08529 -1.8690884,-2.13508 z"
       id="path832"
       inkscape:connector-curvature="0"
       sodipodi:nodetypes="ccc" />
    <path
       sodipodi:nodetypes="ccccc"
       inkscape:connector-curvature="0"
       id="path834"
       d="m -3.8754081,182.87591 c -3.0351247,-0.0403 -2.3523596,2.10648 -2.5390605,3.74177 -1.5103322,-0.58826 -2.7351164,-1.58444 -3.0067823,-3.94222 3.2856148,0.90289 3.4727207,0.11734 4.2763125,-1.20271 z"
       style="fill:#0fa098;stroke:none;stroke-width:0.26458332px;stroke-linecap:butt;stroke-linejoin:miter;stroke-opacity:1;fill-opacity:1" />
    <path
       sodipodi:nodetypes="ccc"
       inkscape:connector-curvature="0"
       id="path836"
       d="m -8.8012022,183.44205 c 0.025498,0.82231 1.54609,2.3953 1.8690884,2.13508 -0.3203236,-1.76653 -1.2230233,-2.08529 -1.8690884,-2.13508 z"
       style="fill:#036460;stroke:none;stroke-width:0.09109817px;stroke-linecap:butt;stroke-linejoin:miter;stroke-opacity:1;fill-opacity:1" />
    <path
       sodipodi:nodetypes="ccccc"
       inkscape:connector-curvature="0"
       id="path834-3"
       d="m 5.3341386,185.54472 c -1.8621229,2.3971 0.2622226,3.14675 1.4542815,4.28167 -1.3799224,0.85028 -2.9131449,1.22675 -4.9579594,0.0219 2.7013163,-2.07686 2.1874258,-2.69976 1.618807,-4.13676 z"
       style="fill:#0fa098;fill-opacity:1;stroke:none;stroke-width:0.26458332px;stroke-linecap:butt;stroke-linejoin:miter;stroke-opacity:1" />
    <path
       sodipodi:nodetypes="ccc"
       inkscape:connector-curvature="0"
       id="path836-6"
       d="m 2.8158859,189.81582 c 0.6714076,0.47546 2.8431418,0.21074 2.8302834,-0.20384 -1.6024566,-0.80954 -2.4010252,-0.28156 -2.8302834,0.20384 z"
       style="fill:#036460;fill-opacity:1;stroke:none;stroke-width:0.09109817px;stroke-linecap:butt;stroke-linejoin:miter;stroke-opacity:1" />
    <path
       sodipodi:nodetypes="ccccc"
       inkscape:connector-curvature="0"
       id="path834-3-7"
       d="m 1.8538198,164.86874 c 1.6384778,-2.55518 -0.5447911,-3.1103 -1.83429478,-4.13315 1.29766418,-0.9712 2.79071218,-1.48434 4.93580368,-0.46871 -2.5031206,2.3119 -1.9351759,2.88594 -1.2393461,4.26584 z"
       style="fill:#0fa098;fill-opacity:1;stroke:none;stroke-width:0.26458332px;stroke-linecap:butt;stroke-linejoin:miter;stroke-opacity:1" />
    <path
       sodipodi:nodetypes="ccc"
       inkscape:connector-curvature="0"
       id="path836-6-5"
       d="m 3.9768415,160.38804 c -0.7115308,-0.413 -2.8505641,0.0464 -2.8003893,0.45813 1.6689025,0.6618 2.4166305,0.064 2.8003893,-0.45813 z"
       style="fill:#036460;fill-opacity:1;stroke:none;stroke-width:0.09109817px;stroke-linecap:butt;stroke-linejoin:miter;stroke-opacity:1" />
    <path
       sodipodi:nodetypes="ccccc"
       inkscape:connector-curvature="0"
       id="path834-3-3"
       d="m 14.390426,170.98097 c 2.793747,1.18683 2.97492,-1.05861 3.76707,-2.50136 1.175039,1.11644 1.931261,2.50231 1.289691,4.78733 -2.698878,-2.08003 -3.169564,-1.42387 -4.413249,-0.50652 z"
       style="fill:#0fa098;fill-opacity:1;stroke:none;stroke-width:0.26458332px;stroke-linecap:butt;stroke-linejoin:miter;stroke-opacity:1" />
    <path
       sodipodi:nodetypes="ccc"
       inkscape:connector-curvature="0"
       id="path836-6-56"
       d="m 19.163671,172.32262 c 0.287851,-0.77071 -0.523707,-2.80243 -0.921198,-2.68392 -0.372597,1.75624 0.342127,2.39314 0.921198,2.68392 z"
       style="fill:#036460;fill-opacity:1;stroke:none;stroke-width:0.09109817px;stroke-linecap:butt;stroke-linejoin:miter;stroke-opacity:1" />
    <path
       sodipodi:nodetypes="ccccc"
       inkscape:connector-curvature="0"
       id="path834-3-2"
       d="m -5.5048752,171.89885 c -1.64777,-2.5492 -3.056836,-0.79155 -4.5217188,-0.0411 -0.346934,-1.58328 -0.196015,-3.15482 1.6164578,-4.6871 1.068388,3.23559 1.826038,2.9562 3.3701962,2.89398 z"
       style="fill:#0fa098;fill-opacity:1;stroke:none;stroke-width:0.26458332px;stroke-linecap:butt;stroke-linejoin:miter;stroke-opacity:1" />
    <path
       sodipodi:nodetypes="ccc"
       inkscape:connector-curvature="0"
       id="path836-6-9"
       d="m -8.7048772,168.11152 c -0.670492,0.47675 -1.137731,2.61408 -0.742159,2.73884 1.293268,-1.24526 1.058591,-2.17338 0.742159,-2.73884 z"
       style="fill:#036460;fill-opacity:1;stroke:none;stroke-width:0.09109817px;stroke-linecap:butt;stroke-linejoin:miter;stroke-opacity:1" />
    <path
       sodipodi:nodetypes="ccccc"
       inkscape:connector-curvature="0"
       id="path834-3-1"
       d="m 13.611843,180.47511 c 0.918601,2.89306 2.740656,1.56832 4.351419,1.22996 -0.08209,1.61877 -0.641373,3.09515 -2.793278,4.09627 -0.178971,-3.40271 -0.983444,-3.33262 -2.48952,-3.67908 z"
       style="fill:#0fa098;fill-opacity:1;stroke:none;stroke-width:0.26458332px;stroke-linecap:butt;stroke-linejoin:miter;stroke-opacity:1" />
    <path
       sodipodi:nodetypes="ccc"
       inkscape:connector-curvature="0"
       id="path836-6-2"
       d="m 15.702005,184.97124 c 0.772344,-0.28344 1.785736,-2.22239 1.436957,-2.44688 -1.575458,0.8609 -1.593376,1.81806 -1.436957,2.44688 z"
       style="fill:#036460;fill-opacity:1;stroke:none;stroke-width:0.09109817px;stroke-linecap:butt;stroke-linejoin:miter;stroke-opacity:1" />
    <path
       sodipodi:nodetypes="ccccc"
       inkscape:connector-curvature="0"
       id="path834-3-70"
       d="m 9.7363343,165.59418 c 3.5547597,-0.92268 2.0721027,-3.20975 1.7675047,-5.17773 1.95046,0.20389 3.698015,0.97513 4.76834,3.63978 -4.122669,-0.004 -4.090034,0.97259 -4.606043,2.76979 z"
       style="fill:#0fa098;fill-opacity:1;stroke:none;stroke-width:0.3201226px;stroke-linecap:butt;stroke-linejoin:miter;stroke-opacity:1" />
    <path
       sodipodi:nodetypes="ccc"
       inkscape:connector-curvature="0"
       id="path836-6-93"
       d="m 15.30368,163.35975 c -0.292478,-0.95147 -2.569529,-2.30126 -2.863314,-1.89439 0.938209,1.95912 2.093472,2.04269 2.863314,1.89439 z"
       style="fill:#036460;fill-opacity:1;stroke:none;stroke-width:0.11022079px;stroke-linecap:butt;stroke-linejoin:miter;stroke-opacity:1" />
    <path
       sodipodi:nodetypes="ccccc"
       inkscape:connector-curvature="0"
       id="path834-3-6"
       d="m -6.0019385,178.23985 c -3.4649191,-1.87664 -3.9745901,1.00307 -5.1753845,2.77044 -1.381581,-1.58704 -2.188848,-3.47089 -1.07929,-6.34526 3.232723,3.01934 3.9215298,2.22909 5.6413995,1.19614 z"
       style="fill:#0fa098;fill-opacity:1;stroke:none;stroke-width:0.34347725px;stroke-linecap:butt;stroke-linejoin:miter;stroke-opacity:1" />
    <path
       sodipodi:nodetypes="ccc"
       inkscape:connector-curvature="0"
       id="path836-6-0"
       d="m -12.006102,175.92023 c -0.466587,0.96072 0.332946,3.68604 0.861192,3.58166 0.697036,-2.224 -0.148505,-3.13481 -0.861192,-3.58166 z"
       style="fill:#036460;fill-opacity:1;stroke:none;stroke-width:0.11826199px;stroke-linecap:butt;stroke-linejoin:miter;stroke-opacity:1" />
    <path
       sodipodi:nodetypes="ccccc"
       inkscape:connector-curvature="0"
       id="path834-3-2-6"
       d="m -6.6152135,175.86117 c -1.162703,-1.79877 -2.156971,-0.55853 -3.190624,-0.029 -0.2448035,-1.1172 -0.138312,-2.22611 1.140608,-3.30732 0.753878,2.2831 1.288492,2.08596 2.378084,2.04205 z"
       style="fill:#0fa098;fill-opacity:1;stroke:none;stroke-width:0.18669577px;stroke-linecap:butt;stroke-linejoin:miter;stroke-opacity:1" />
    <path
       sodipodi:nodetypes="ccc"
       inkscape:connector-curvature="0"
       id="path836-6-9-2"
       d="m -8.8732055,173.18875 c -0.473113,0.3364 -0.802807,1.84455 -0.523683,1.93258 0.912558,-0.87868 0.746965,-1.53358 0.523683,-1.93258 z"
       style="fill:#036460;fill-opacity:1;stroke:none;stroke-width:0.06428085px;stroke-linecap:butt;stroke-linejoin:miter;stroke-opacity:1" />
    <path
       sodipodi:nodetypes="ccccc"
       inkscape:connector-curvature="0"
       id="path834-3-2-61"
       d="m -2.4600586,167.74289 c 0.0013,-2.31286 -1.6277219,-1.77185 -2.8754685,-1.89825 0.4335409,-1.15643 1.1806859,-2.09925 2.9744534,-2.32908 -0.6560782,2.51207 -0.055754,2.64701 0.9577838,3.24648 z"
       style="fill:#0fa098;fill-opacity:1;stroke:none;stroke-width:0.20160298px;stroke-linecap:butt;stroke-linejoin:miter;stroke-opacity:1" />
    <path
       sodipodi:nodetypes="ccc"
       inkscape:connector-curvature="0"
       id="path836-6-9-8"
       d="m -2.9391288,163.99541 c -0.6262759,0.0274 -1.810002,1.20117 -1.6086095,1.44475 1.3428142,-0.26117 1.57693,-0.95204 1.6086095,-1.44475 z"
       style="fill:#036460;fill-opacity:1;stroke:none;stroke-width:0.06941353px;stroke-linecap:butt;stroke-linejoin:miter;stroke-opacity:1" />
    <path
       sodipodi:nodetypes="ccccc"
       inkscape:connector-curvature="0"
       id="path834-3-2-7"
       d="m 15.871802,176.24571 c 1.425043,1.8051 2.362298,0.37864 3.413622,-0.29208 0.374815,1.16946 0.373243,2.36564 -0.884376,3.65091 -1.037064,-2.36423 -1.58859,-2.09934 -2.748885,-1.94208 z"
       style="fill:#0fa098;fill-opacity:1;stroke:none;stroke-width:0.20046572px;stroke-linecap:butt;stroke-linejoin:miter;stroke-opacity:1" />
    <path
       sodipodi:nodetypes="ccc"
       inkscape:connector-curvature="0"
       id="path836-6-9-9"
       d="m 18.556145,178.8738 c 0.471677,-0.40752 0.671394,-2.05307 0.364106,-2.1189 -0.886524,1.0317 -0.643191,1.71499 -0.364106,2.1189 z"
       style="fill:#036460;fill-opacity:1;stroke:none;stroke-width:0.06902196px;stroke-linecap:butt;stroke-linejoin:miter;stroke-opacity:1" />
    <path
       sodipodi:nodetypes="ccccc"
       inkscape:connector-curvature="0"
       id="path834-3-2-7-2"
       d="m 10.234476,184.07522 c -0.6950137,2.19228 1.011634,2.16805 2.15662,2.66217 -0.757902,0.96628 -1.749054,1.63596 -3.5185187,1.31578 1.3755257,-2.18472 0.846864,-2.49272 0.06583,-3.36507 z"
       style="fill:#0fa098;fill-opacity:1;stroke:none;stroke-width:0.20046572px;stroke-linecap:butt;stroke-linejoin:miter;stroke-opacity:1" />
    <path
       sodipodi:nodetypes="ccc"
       inkscape:connector-curvature="0"
       id="path836-6-9-9-0"
       d="m 9.5645263,187.77167 c 0.6019497,0.16189 2.0762627,-0.59582 1.9583927,-0.88714 -1.351386,-0.1552 -1.7805597,0.42953 -1.9583927,0.88714 z"
       style="fill:#036460;fill-opacity:1;stroke:none;stroke-width:0.06902197px;stroke-linecap:butt;stroke-linejoin:miter;stroke-opacity:1" />
    <path
       sodipodi:nodetypes="ccccc"
       inkscape:connector-curvature="0"
       id="path834-3-2-7-23"
       d="m -0.88739547,184.13437 c -1.97300613,1.18169 -0.67857603,2.2942 -0.14827503,3.42289 -1.207882,0.22168 -2.3939751,0.0667 -3.5072821,-1.34545 2.4777401,-0.72519 2.2857961,-1.30614 2.2786921,-2.47702 z"
       style="fill:#0fa098;fill-opacity:1;stroke:none;stroke-width:0.20046572px;stroke-linecap:butt;stroke-linejoin:miter;stroke-opacity:1" />
    <path
       sodipodi:nodetypes="ccc"
       inkscape:connector-curvature="0"
       id="path836-6-9-9-7"
       d="m -3.8381486,186.45937 c 0.34364,0.52006 1.9499701,0.92924 2.0546781,0.63294 -0.9094401,-1.01156 -1.6183011,-0.8579 -2.0546781,-0.63294 z"
       style="fill:#036460;fill-opacity:1;stroke:none;stroke-width:0.06902197px;stroke-linecap:butt;stroke-linejoin:miter;stroke-opacity:1" />
    <path
       sodipodi:nodetypes="ccccc"
       inkscape:connector-curvature="0"
       id="path834-3-2-7-5"
       d="m 1.0140783,184.89065 c 0.633008,1.6897 -0.68475103,1.6684 -1.54629103,2.04723 0.627387,0.74547 1.42161696,1.26284 2.77265203,1.01893 -1.157691,-1.68493 -0.763432,-1.92135 -0.199372,-2.59209 z"
       style="fill:#0fa098;fill-opacity:1;stroke:none;stroke-width:0.15452658px;stroke-linecap:butt;stroke-linejoin:miter;stroke-opacity:1" />
    <path
       sodipodi:nodetypes="ccc"
       inkscape:connector-curvature="0"
       id="path836-6-9-9-9"
       d="m 1.6941663,187.73891 c -0.457258,0.12377 -1.62815803,-0.46213 -1.55007503,-0.68635 1.03574203,-0.11745 1.39267203,0.3336 1.55007503,0.68635 z"
       style="fill:#036460;fill-opacity:1;stroke:none;stroke-width:0.05320475px;stroke-linecap:butt;stroke-linejoin:miter;stroke-opacity:1" />
    <path
       sodipodi:nodetypes="ccccc"
       inkscape:connector-curvature="0"
       id="path834-3-2-7-22"
       d="m 6.898953,165.21245 c 1.8648774,-1.34587 0.4801649,-2.34377 -0.1445913,-3.42305 1.1845364,-0.32403 2.3795357,-0.27087 3.6093733,1.04101 -2.406755,0.93414 -2.1658968,1.49657 -2.0588223,2.66257 z"
       style="fill:#0fa098;fill-opacity:1;stroke:none;stroke-width:0.20046572px;stroke-linecap:butt;stroke-linejoin:miter;stroke-opacity:1" />
    <path
       sodipodi:nodetypes="ccc"
       inkscape:connector-curvature="0"
       id="path836-6-9-9-8"
       d="m 9.6403637,162.64394 c -0.3867991,-0.48881 -2.0222051,-0.75931 -2.1012261,-0.45515 0.9925077,0.9302 1.685656,0.71656 2.1012261,0.45515 z"
       style="fill:#036460;fill-opacity:1;stroke:none;stroke-width:0.06902197px;stroke-linecap:butt;stroke-linejoin:miter;stroke-opacity:1" />
    <path
       sodipodi:nodetypes="ccccc"
       inkscape:connector-curvature="0"
       id="path834-3-2-7-9"
       d="m 13.586901,168.08314 c 1.364908,0.072 1.095821,-0.90602 1.208862,-1.63849 0.669116,0.29149 1.202495,0.76148 1.282864,1.82715 -1.462299,-0.46459 -1.560425,-0.11445 -1.945435,0.46522 z"
       style="fill:#0fa098;fill-opacity:1;stroke:none;stroke-width:0.1191393px;stroke-linecap:butt;stroke-linejoin:miter;stroke-opacity:1" />
    <path
       sodipodi:nodetypes="ccc"
       inkscape:connector-curvature="0"
       id="path836-6-9-9-73"
       d="m 15.813261,167.91587 c 0.0031,-0.37045 -0.65312,-1.10519 -0.803064,-0.99384 0.112762,0.80052 0.51326,0.95996 0.803064,0.99384 z"
       style="fill:#036460;fill-opacity:1;stroke:none;stroke-width:0.04102062px;stroke-linecap:butt;stroke-linejoin:miter;stroke-opacity:1" />
    <path
       style="fill:#036460;fill-opacity:1;stroke:none;stroke-width:0.18980967px;stroke-linecap:butt;stroke-linejoin:miter;stroke-opacity:1"
       d="m -6.2871455,174.5669 0.6101029,3.1183 4.2707177,-2.5082 z"
       id="path998"
       inkscape:connector-curvature="0" />
    <path
       style="fill:#036460;fill-opacity:1;stroke:none;stroke-width:0.18980968px;stroke-linecap:butt;stroke-linejoin:miter;stroke-opacity:1"
       d="m 11.409412,170.25436 -2.9640725,1.14468 3.2146985,3.76773 z"
       id="path998-6"
       inkscape:connector-curvature="0" />
    <path
       style="fill:#036460;fill-opacity:1;stroke:none;stroke-width:0.13258214px;stroke-linecap:butt;stroke-linejoin:miter;stroke-opacity:1"
       d="m 3.1487472,182.59933 -0.4116594,-2.26717 -2.86344913,1.82743 z"
       id="path998-1"
       inkscape:connector-curvature="0"
       inkscape:transform-center-x="0.47596276"
       inkscape:transform-center-y="-0.011112276" />
    <path
       style="fill:#036460;fill-opacity:1;stroke:none;stroke-width:0.127471px;stroke-linecap:butt;stroke-linejoin:miter;stroke-opacity:1"
       d="m -2.019703,169.45033 2.03898337,0.11879 -0.8934036,-3.33625 z"
       id="path998-2"
       inkscape:connector-curvature="0" />
    <path
       style="fill:#036460;fill-opacity:1;stroke:none;stroke-width:0.26458332px;stroke-linecap:butt;stroke-linejoin:miter;stroke-opacity:1"
       d="m 5.328313,170.21371 -2.645833,2.36235 -1.511906,4.7247 5.008185,-3.87425 z"
       id="path1027"
       inkscape:connector-curvature="0" />
    <path
       style="fill:#036460;fill-opacity:1;stroke:none;stroke-width:0.13523141px;stroke-linecap:butt;stroke-linejoin:miter;stroke-opacity:1"
       d="m 8.5621196,177.65272 -2.8012223,1.54551 1.4972052,0.57956 3.7188645,-2.17336 z"
       id="path1031"
       inkscape:connector-curvature="0" />
    <path
       style="fill:#036460;fill-opacity:1;stroke:none;stroke-width:0.18980968px;stroke-linecap:butt;stroke-linejoin:miter;stroke-opacity:1"
       d="m 9.6261558,168.38268 -1.3212431,-2.8897 -3.5671316,3.43594 z"
       id="path998-6-9"
       inkscape:connector-curvature="0" />
    <path
       style="fill:#036460;fill-opacity:1;stroke:none;stroke-width:0.14385101px;stroke-linecap:butt;stroke-linejoin:miter;stroke-opacity:1"
       d="m 8.3536692,180.57432 -1.248034,1.48041 -0.7131632,2.96082 2.3623512,-2.42787 z"
       id="path1027-3"
       inkscape:connector-curvature="0" />
    <path
       style="fill:#000000;stroke:#000000;stroke-width:0.34191895px;stroke-linecap:butt;stroke-linejoin:miter;stroke-opacity:1"
       d="m 21.182911,189.26731 2.442279,-2.19805 -0.06106,-0.79374 -6.777323,-6.83838 -0.854797,0.30529 -0.976911,-0.73269 -1.343256,1.46537 0.488459,0.61057 -0.183173,1.16009 6.533093,7.02154 z"
       id="path2823"
       inkscape:connector-curvature="0" />
    <path
       style="opacity:1;fill:#333333;fill-opacity:1;stroke:none;stroke-width:2.28766465;stroke-miterlimit:4;stroke-dasharray:none;stroke-dashoffset:0;stroke-opacity:1"
       d="m 7.884516,165.207 a 8.8164052,8.920274 0 0 0 -8.816435,8.92062 8.8164052,8.920274 0 0 0 8.816435,8.91994 8.8164052,8.920274 0 0 0 8.816431,-8.91994 8.8164052,8.920274 0 0 0 -8.816431,-8.92062 z m -0.02805,2.42883 a 6.492686,6.5691788 0 0 1 6.493123,6.56925 6.492686,6.5691788 0 0 1 -6.493123,6.56925 6.492686,6.5691788 0 0 1 -6.492453,-6.56925 6.492686,6.5691788 0 0 1 6.492453,-6.56925 z"
       id="path2806"
       inkscape:connector-curvature="0" />
    <path
       style="fill:#ffffff;stroke:none;stroke-width:0.15691143px;stroke-linecap:butt;stroke-linejoin:miter;stroke-opacity:1"
       d="m 3.0037588,173.42651 c -0.435647,1.74124 -1.339599,2.0467 -2.33526397,2.07099 0.91995297,-0.0369 1.57453497,0.0275 2.22911697,2.01181 0.831516,-1.82711 1.468602,-1.92735 2.706783,-2.2485 -1.257112,0.18618 -2.191583,-0.2871 -2.600636,-1.8343 z"
       id="path2826"
       inkscape:connector-curvature="0"
       sodipodi:nodetypes="ccccc" />
  </g>
</svg>
